<?xml version="1.0" encoding="utf-8"?>
<!-- Generator: Adobe Illustrator 22.1.0, SVG Export Plug-In . SVG Version: 6.00 Build 0)  -->
<svg version="1.1" id="Layer_1" xmlns="http://www.w3.org/2000/svg" xmlns:xlink="http://www.w3.org/1999/xlink" x="0px" y="0px"
     viewBox="0 0 636.1 140.4" style="enable-background:new 0 0 636.1 140.4;" xml:space="preserve">
<style type="text/css">
	.st0{fill:url(#SVGID_1_);}
	.st1{fill:url(#SVGID_2_);}
	.st2{fill:url(#SVGID_3_);}
	.st3{fill:url(#SVGID_4_);}
	.st4{fill:url(#SVGID_5_);}
	.st5{fill:url(#SVGID_6_);}
	.st6{fill:url(#SVGID_7_);}
	.st7{fill:url(#SVGID_8_);}
	.st8{fill:url(#SVGID_9_);}
</style>
<linearGradient id="SVGID_1_" gradientUnits="userSpaceOnUse" x1="-14.647" y1="54.2922" x2="656.5567" y2="54.2922">
	<stop  offset="1.502404e-03" style="stop-color:#00BCB4"/>
	<stop  offset="1" style="stop-color:#C4E86B"/>
</linearGradient>
<path class="st0" d="M 331.359 92.889 Q 324.182 92.889 317.993 91.315 A 37.003 37.003 0 0 1 308.105 87.506 A 6.082 6.082 0 0 1 304.406 83.441 A 6.536 6.536 0 0 1 305.248 80.731 A 15.481 15.481 0 0 1 307.189 77.728 A 2.958 2.958 0 0 1 308.947 76.41 A 7.439 7.439 0 0 1 311.511 77.582 A 67.741 67.741 0 0 0 320.519 81.464 A 33.508 33.508 0 0 0 331.359 83.002 A 19.868 19.868 0 0 0 340.222 81.097
 Q 344.103 79.193 346.264 75.714 A 14.885 14.885 0 0 0 348.425 67.694 
Q 348.425 62.86 345.825 59.674 A 19.218 19.218 0 0 0 339.526 54.62 A 137.949 137.949 0 0 0 328.796 49.969 A 91.199 91.199 0 0 1 316.747 44.513 Q 312.316 41.986 309.204 37.152 A 23.384 23.384 0 0 1 306.091 24.335 Q 306.091 17.377 309.68 11.847 Q 313.268 6.317 319.86 3.241 A 35.475 35.475 0 0 1 335.021 0.165 A 43.038 43.038 0 0 1 343.884 1.227 Q 348.864 2.289 352.416 4.12 A 5.167 5.167 0 0 1 355.969 8.148 A 6.696 6.696 0 0 1 355.2 10.748 Q 354.431 12.396 353.405 13.715 Q 352.38 15.033 351.794 15.033 Q 351.135 15.033 349.157 13.934 A 41.431 41.431 0 0 0 342.639 11.114 A 25.237 25.237 0 0 0 334.802 10.052 Q 327.258 10.052 322.607 13.934 A 13.344 13.344 0 0 0 317.956 24.774 A 11.09 11.09 0 0 0 320.007 31.659 A 14.966 14.966 0 0 0 325.207 35.98 A 89.323 89.323 0 0 0 333.996 39.716 Q 334.362 39.789 335.681 40.301 A 96.165 96.165 0 0 1 348.388 46.124 A 24.834 24.834 0 0 1 356.811 54.218 A 24.019 24.019 0 0 1 360.29 67.694 A 24.859 24.859 0 0 1 356.738 81.097 A 22.91 22.91 0 0 1 346.63 89.85 A 35.965 35.965 0 0 1 331.359 92.889 Z M 159.46 81.61 A 40.72 40.72 0 0 0 191.101 92.889 A 55.315 55.315 0 0 0 204.467 91.351 A 36.261 36.261 0 0 0 214.355 87.579 A 6.082 6.082 0 0 0 218.054 83.514 A 6.973 6.973 0 0 0 217.248 81.061 Q 216.442 79.34 215.38 77.948 A 2.81 2.81 0 0 0 213.513 76.556 A 9.202 9.202 0 0 0 211.022 77.655 Q 206.774 79.926 202.16 81.464 A 35.152 35.152 0 0 1 191.101 83.002 A 27.94 27.94 0 0 1 168.359 74.176 A 42.465 42.465 0 0 1 160.998 46.674 A 42.66 42.66 0 0 1 168.432 18.805 Q 175.866 10.052 191.613 10.052 Q 197.619 10.052 201.794 11.444 Q 205.969 12.836 209.777 14.886 A 7.304 7.304 0 0 0 211.828 15.839 Q 212.634 15.839 213.659 14.447 Q 214.684 13.055 215.454 11.224 Q 216.223 9.393 216.223 8.295 Q 216.223 6.537 212.634 4.633 A 37.635 37.635 0 0 0 203.259 1.447 A 55.039 55.039 0 0 0 191.32 0.165 A 39.212 39.212 0 0 0 149.206 46.527 A 50.953 50.953 0 0 0 159.46 81.61 Z M 234.973 88.275 L 234.973 4.926 A 3.971 3.971 0 0 1 235.925 1.959 Q 236.877 1.044 238.928 1.044 L 262.219 1.044 Q 271.74 1.044 278.259 3.9 A 21.356 21.356 0 0 1 288.073 11.957 Q 291.369 17.157 291.369 24.042 A 19.744 19.744 0 0 1 289.392 32.501 A 23.113 23.113 0 0 1 284.118 39.752 Q 280.822 42.792 277.087 43.817 L 277.087 44.33 A 0.115 0.115 0 0 1 277.238 44.241 A 21.996 21.996 0 0 1 282.141 46.271 Q 287.194 48.724 291.259 53.522 Q 295.324 58.319 295.324 65.936 Q 295.324 92.157 261.34 92.157 L 238.928 92.157 A 4.104 4.104 0 0 1 235.925 91.205 A 3.99 3.99 0 0 1 234.973 88.275 Z M 0.012 107.538 L 0.012 106.512 A 2.878 2.878 0 0 1 0.598 104.498 A 2.629 2.629 0 0 1 2.575 103.876 L 72.448 103.876 Q 73.767 103.876 74.352 104.498 A 2.878 2.878 0 0 1 74.938 106.512 L 74.938 107.538 A 2.878 2.878 0 0 1 74.352 109.552 A 2.517 2.517 0 0 1 72.448 110.175 L 2.575 110.175 A 2.629 2.629 0 0 1 0.598 109.552 A 2.878 2.878 0 0 1 0.012 107.538 Z M 69.518 107.538 L 69.518 106.512 A 2.878 2.878 0 0 1 70.104 104.498 A 2.629 2.629 0 0 1 72.082 103.876 L 141.955 103.876 Q 143.273 103.876 143.859 104.498 A 2.878 2.878 0 0 1 144.445 106.512 L 144.445 107.538 A 2.878 2.878 0 0 1 143.859 109.552 A 2.517 2.517 0 0 1 141.955 110.175 L 72.082 110.175 A 2.629 2.629 0 0 1 70.104 109.552 A 2.878 2.878 0 0 1 69.518 107.538 Z M 246.472 82.269 L 265.515 82.269 A 18.362 18.362 0 0 0 278.771 77.765 Q 283.459 73.26 283.459 65.424 A 13.427 13.427 0 0 0 278.332 54.181 Q 273.205 50.189 263.244 50.189 L 246.472 50.189 L 246.472 82.269 Z M 246.472 40.301 L 261.633 40.301 A 20.658 20.658 0 0 0 270.861 38.287 A 15.9 15.9 0 0 0 277.27 32.794 A 13.68 13.68 0 0 0 279.577 25.067 A 12.725 12.725 0 0 0 275.183 14.337 A 23.08 23.08 0 0 0 261.12 10.931 L 246.472 10.931 L 246.472 40.301 Z"/>
<linearGradient id="SVGID_2_" gradientUnits="userSpaceOnUse" x1="-14.647" y1="64.76" x2="656.5567" y2="64.76">
	<stop  offset="1.502404e-03" style="stop-color:#00BCB4"/>
	<stop  offset="1" style="stop-color:#C4E86B"/>
</linearGradient>

<linearGradient id="SVGID_3_" gradientUnits="userSpaceOnUse" x1="-14.647" y1="63.9224" x2="656.5567" y2="63.9224">
	<stop  offset="1.502404e-03" style="stop-color:#00BCB4"/>
	<stop  offset="1" style="stop-color:#C4E86B"/>
</linearGradient>
<linearGradient id="SVGID_4_" gradientUnits="userSpaceOnUse" x1="-14.647" y1="82.4849" x2="656.5567" y2="82.4849">
	<stop  offset="1.502404e-03" style="stop-color:#00BCB4"/>
	<stop  offset="1" style="stop-color:#C4E86B"/>
</linearGradient>

<linearGradient id="SVGID_5_" gradientUnits="userSpaceOnUse" x1="-14.647" y1="51.6404" x2="656.5567" y2="51.6404">
	
	<stop  offset="1.502404e-03" style="stop-color:#00BCB4"/><stop  offset="1" style="stop-color:#C4E86B"/>
</linearGradient>
<linearGradient id="SVGID_6_" gradientUnits="userSpaceOnUse" x1="-14.647" y1="64.4106" x2="656.5567" y2="64.4106">
	
	<stop  offset="1.502404e-03" style="stop-color:#00BCB4"/><stop  offset="1" style="stop-color:#C4E86B"/>
</linearGradient>
<g>
	<g>
		<linearGradient id="SVGID_7_" gradientUnits="userSpaceOnUse" x1="-14.647" y1="33.7483" x2="656.5567" y2="33.7483">
			
			<stop  offset="1.502404e-03" style="stop-color:#00BCB4"/><stop  offset="1" style="stop-color:#C4E86B"/>
		</linearGradient>
		<path class="st6" d="M100.2,30L53.1,6.5c-1.2-0.6-2.5-0.6-3.7,0L2.3,30C0.9,30.7,0,32.2,0,33.7c0,1.6,0.9,3,2.3,3.7L49.4,61
			c0.6,0.3,1.2,0.4,1.9,0.4c0.6,0,1.3-0.1,1.9-0.4l47.1-23.5c1.4-0.7,2.3-2.1,2.3-3.7C102.5,32.2,101.6,30.7,100.2,30z M51.2,52.7
			L13.4,33.7l37.8-18.9l37.8,18.9L51.2,52.7z"/>
	</g>
</g>
<g>
	<g>
		<linearGradient id="SVGID_8_" gradientUnits="userSpaceOnUse" x1="-14.647" y1="92.6076" x2="656.5567" y2="92.6076">
			
			<stop  offset="1.502404e-03" style="stop-color:#00BCB4"/><stop  offset="1" style="stop-color:#C4E86B"/>
		</linearGradient>
		<path class="st7" d="M102,79c-1-2-3.5-2.9-5.6-1.9L51.2,99.8L6,77.1c-2-1-4.5-0.2-5.6,1.9c-1,2-0.2,4.5,1.9,5.6l47.1,23.5
			c0.6,0.3,1.2,0.4,1.9,0.4c0.6,0,1.3-0.1,1.9-0.4l47.1-23.5C102.2,83.5,103,81,102,79z"/>
	</g>
</g>
<g>
	<g>
		<linearGradient id="SVGID_9_" gradientUnits="userSpaceOnUse" x1="-14.647" y1="69.0637" x2="656.5567" y2="69.0637">
			
			<stop  offset="1.502404e-03" style="stop-color:#00BCB4"/><stop  offset="1" style="stop-color:#C4E86B"/>
		</linearGradient>
		<path class="st8" d="M102,55.4c-1-2-3.5-2.9-5.6-1.9L51.2,76.2L6,53.6c-2-1-4.5-0.2-5.6,1.9c-1,2-0.2,4.5,1.9,5.6l47.1,23.5
			c0.6,0.3,1.2,0.4,1.9,0.4c0.6,0,1.3-0.1,1.9-0.4L100.2,61C102.2,60,103,57.5,102,55.4z"/>
	</g>
</g>
</svg>
